<svg width="92" height="46" viewBox="0 0 92 46" fill="none" xmlns="http://www.w3.org/2000/svg">
<path d="M5.5 45L85.5 44L89.5 41V38.5L87.5 34.5L82.5 28.5L77 26.5L76 22.5V16L72 8L65.5 4L58 1.5L45 5.5L39.5 14H36.5L32.5 12H26L17.5 18L15 26.5L9 28.5L5.5 32.5L2 40L5.5 45Z" fill="black"/>
<path d="M78.254 25.305C78.5118 23.9808 78.6368 22.6605 78.6368 21.3753C78.6368 9.6563 69.1056 0.125298 57.3868 0.125298C48.9727 0.125298 41.3788 5.1253 37.9888 12.7343C31.7466 8.8202 23.3248 9.8241 18.0828 15.1171C15.2898 17.9374 13.6531 21.5468 13.4031 25.3901C6.20781 26.5542 0.919113 32.6479 0.919113 40.0311C0.919113 43.2577 3.54411 45.8827 6.77071 45.8827H85.2197C88.4463 45.8827 91.0713 43.2577 91.0713 40.0311C91.0791 32.4959 85.5635 26.3081 78.2553 25.3041L78.254 25.305ZM85.2267 43.223H6.7737C5.012 43.223 3.5784 41.7894 3.5784 40.0277C3.5784 33.6449 8.4104 28.4257 14.8124 27.8907C15.5077 27.836 16.039 27.2501 16.0312 26.5548C15.996 22.9845 17.3984 19.586 19.9765 16.9845C22.5624 14.3751 25.9531 12.9376 29.539 12.9376C32.5117 12.9376 35.3632 13.9376 37.7968 15.8321C38.1327 16.0938 38.5702 16.1837 38.9882 16.0587C39.3984 15.9376 39.7226 15.629 39.8671 15.2227C42.4804 7.78132 49.5273 2.78172 57.3941 2.78172C67.6481 2.78172 75.9881 11.1215 75.9881 21.3757C75.9881 22.9304 75.7733 24.5398 75.3397 26.1609C75.2381 26.5515 75.3162 26.9695 75.5584 27.2937C75.8006 27.6179 76.1756 27.8172 76.5818 27.8289C83.2224 28.0476 88.4258 33.407 88.4258 40.0279C88.4219 41.7896 86.9884 43.223 85.2267 43.223Z" fill="black"/>
</svg>
